<svg fill="#000000" xmlns="http://www.w3.org/2000/svg"  viewBox="0 0 32 32" width="96px" height="96px"><path d="M 4 5 L 4 27 L 19.46875 27 L 20.125 26.34375 C 19.933594 25.914063 19.761719 25.46875 19.65625 25 L 6 25 L 6 11 L 26 11 L 26 16.53125 C 26.164063 16.519531 26.332031 16.5 26.5 16.5 C 27.015625 16.5 27.515625 16.550781 28 16.65625 L 28 5 Z M 6 7 L 26 7 L 26 9 L 6 9 Z M 9 13 L 9 15 L 11 15 L 11 13 Z M 13 13 L 13 15 L 23 15 L 23 13 Z M 9 17 L 9 19 L 11 19 L 11 17 Z M 13 17 L 13 19 L 20.5 19 C 21.109375 18.191406 21.898438 17.507813 22.78125 17 Z M 26.5 18 C 23.472656 18 21 20.472656 21 23.5 C 21 24.648438 21.359375 25.707031 21.96875 26.59375 L 18.28125 30.28125 L 19.71875 31.71875 L 23.40625 28.03125 C 24.292969 28.640625 25.351563 29 26.5 29 C 29.527344 29 32 26.527344 32 23.5 C 32 20.472656 29.527344 18 26.5 18 Z M 26.5 20 C 28.445313 20 30 21.554688 30 23.5 C 30 25.445313 28.445313 27 26.5 27 C 24.554688 27 23 25.445313 23 23.5 C 23 21.554688 24.554688 20 26.5 20 Z M 9 21 L 9 23 L 11 23 L 11 21 Z M 13 21 L 13 23 L 19.03125 23 C 19.078125 22.304688 19.210938 21.632813 19.4375 21 Z"/></svg>