<svg fill="#000000" xmlns="http://www.w3.org/2000/svg"  viewBox="0 0 98 98" width="128px" height="128px"><path d="M 81.240234 0.98828125 A 1.8 1.8 0 0 0 81 1 L 35.400391 1 C 34.300391 1 33 1.5992187 33 2.6992188 L 33 5 L 17 5 C 15.9 5 15 5.4996094 15 6.5996094 L 15 33 A 2 2 0 0 0 17 35 L 25 35 L 25 38.599609 A 1.9 1.9 0 0 0 26 40.300781 A 1.6 1.6 0 0 0 26.900391 40.599609 A 2.1 2.1 0 0 0 28 40.199219 L 35.400391 35 L 53.300781 35 A 1.8 1.8 0 0 0 55 33 L 55 27 L 64.900391 27 L 74.099609 36.699219 A 2.1 2.1 0 0 0 75.599609 37.400391 L 76.5 37.400391 A 2 2 0 0 0 78 35.599609 L 78 27 L 81 27 C 82.1 27 83 26.600391 83 25.400391 L 83 2.6992188 A 1.8 1.8 0 0 0 81.240234 0.98828125 z M 37 5 L 79 5 L 79 23 L 75.599609 23 C 74.499609 23 74 24.300391 74 25.400391 L 74 30.599609 L 67.400391 23.800781 A 2.7 2.7 0 0 0 65.699219 23 L 37 23 L 37 5 z M 19 9 L 33 9 L 33 25.400391 C 33 26.600391 34.300391 27 35.400391 27 L 51 27 L 51 31 L 34.800781 31 A 1.7 1.7 0 0 0 33.699219 31.400391 L 29 34.699219 L 29 33 A 2.1 2.1 0 0 0 26.900391 31 L 19 31 L 19 9 z M 73.400391 41.900391 A 11.6 11.6 0 1 0 85 53.5 A 11.6 11.6 0 0 0 73.400391 41.900391 z M 25.181641 41.910156 A 11.6 11.6 0 0 0 13.099609 53.5 A 11.6 11.6 0 0 0 24.699219 65.099609 A 11.6 11.6 0 0 0 25.181641 41.910156 z M 24.699219 45.900391 A 7.6 7.6 0 1 1 17.099609 53.5 A 7.6 7.6 0 0 1 24.699219 45.900391 z M 73.083984 45.90625 A 7.6 7.6 0 0 1 81 53.5 A 7.6 7.6 0 0 1 73.400391 61.099609 A 7.6 7.6 0 0 1 73.083984 45.90625 z M 49 47.5 A 11.6 11.6 0 0 0 37.400391 59.099609 A 11.6 11.6 0 1 0 49 47.5 z M 48.90625 51.5 A 7.6 7.6 0 0 1 49 51.5 A 7.6 7.6 0 0 1 56.599609 59.099609 A 7.6 7.6 0 1 1 48.90625 51.5 z M 23 67 A 16 16 0 0 0 7 83.199219 L 7 89.599609 C 7 90.699609 7.7007812 92 8.8007812 92 L 31 92 L 31 95.300781 C 31 96.400781 31.999609 97 33.099609 97 L 64.900391 97 C 66.000391 97 67 96.400781 67 95.300781 L 67 92 L 89.199219 92 C 90.299219 92 91 90.699609 91 89.599609 L 91 83.199219 A 16 16 0 0 0 75 67 L 71.699219 67 A 16.3 16.3 0 0 0 58 74.800781 A 14.3 14.3 0 0 0 50.599609 73 L 47.400391 73 A 14.3 14.3 0 0 0 40 74.800781 A 16.3 16.3 0 0 0 26.300781 67 L 23 67 z M 23 71 L 26.300781 71 A 12.4 12.4 0 0 1 36.800781 77.099609 A 15.8 15.8 0 0 0 31.300781 88 L 11 88 L 11 83.199219 A 12 12 0 0 1 23 71 z M 71.699219 71 L 75 71 A 12 12 0 0 1 87 83.199219 L 87 88 L 66.699219 88 A 15.8 15.8 0 0 0 61.199219 77.099609 A 12.4 12.4 0 0 1 71.699219 71 z M 47.400391 77 L 50.599609 77 A 12.8 12.8 0 0 1 63 89.800781 L 63 93 L 35 93 L 35 89.800781 A 12.8 12.8 0 0 1 47.400391 77 z"/></svg>